<svg xmlns="http://www.w3.org/2000/svg" xmlns:xlink="http://www.w3.org/1999/xlink" xmlns:lucid="lucid" width="1026" height="592.68"><g transform="translate(-1699.56960655888 773.8645531856178)" lucid:page-tab-id="0_0"><path d="M-500-1000h3500v2000H-500z" fill="#f2f3f5"/><path d="M1694.07-779.37h6v6h-6z" fill="url(#a)"/><path d="M1700.07-779.37h1025v6h-1025z" fill="url(#b)"/><path d="M2725.07-779.37h6v6h-6z" fill="url(#c)"/><path d="M2725.07-773.37h6v591.7h-6z" fill="url(#d)"/><path d="M2725.07-181.68h6v6h-6z" fill="url(#e)"/><path d="M1700.07-181.68h1025v6h-1025z" fill="url(#f)"/><path d="M1694.07-181.68h6v6h-6z" fill="url(#g)"/><path d="M1694.07-773.37h6v591.7h-6z" fill="url(#h)"/><path d="M1700.07-773.37h1025v591.7h-1025z" stroke="#6f7681" fill="#fff" fill-opacity="0"/><path d="M1708.7-789.12c-.44-1.25-1.55-2-3.24-2-2.62 0-3.87 1.78-3.87 4.4 0 2.67 1.28 4.5 3.95 4.5 1.9 0 2.75-1.08 3.46-2.32l1.2.62c-.8 1.7-2.25 2.93-4.74 2.93-3.56 0-5.2-2.2-5.38-5.72-.27-4.62 4.4-6.8 8.3-4.93.86.4 1.4 1.15 1.74 2.04m6.94 8.44l-2.27-3.47-2.32 3.47h-1.5l3-4.36-2.88-4.1h1.56l2.13 3.3 2.08-3.3h1.56l-2.85 4.1 3 4.36h-1.54m6-8.63c2.8 0 3.82 1.88 3.73 4.72h-6c0 1.78.6 2.98 2.35 3.03 1.15.04 1.9-.54 2.17-1.3l1.25.36c-.5 1.26-1.64 2-3.42 2-2.58 0-3.9-1.63-3.87-4.43.05-2.7 1.16-4.36 3.78-4.36zm2.3 3.6c.28-2.65-3.37-3.4-4.3-1.23-.13.3-.27.75-.27 1.24h4.57m8.27 5.04h-1.2l-2.54-7.43c.14 2.37.1 4.95.1 7.44h-1.4v-8.45h2.2c.7 2.48 1.73 4.7 2.26 7.37.5-2.7 1.5-4.9 2.22-7.38h2.13v8.44h-1.36l.1-7.47m8.6 5.87c-.66.93-1.37 1.82-3.02 1.77-1.6-.03-2.57-.92-2.57-2.52-.05-2.85 2.8-2.8 5.55-2.8.14-1.56-.4-2.4-1.82-2.4-1.07.04-1.82.3-1.87 1.38l-1.45-.14c.22-1.64 1.46-2.3 3.38-2.3 2 0 3.2.88 3.2 2.84v3.64c-.05.9.3 1.42 1.24 1.2v.9c-1.38.4-2.7-.1-2.62-1.56zm-4.13-.76c0 .9.55 1.47 1.44 1.47 1.82-.14 2.8-1.3 2.66-3.3-1.9.1-4.1-.22-4.1 1.83m18.77-6.1v8.46h-1.42v-7.43h-3.6v7.44h-1.42v-8.45h6.44m5.5-.2c2.77-.03 3.8 1.66 3.8 4.4.03 2.8-1.2 4.4-3.83 4.4s-3.7-1.72-3.74-4.4c0-2.92 1.25-4.4 3.78-4.4zm-.03 7.75c1.95.04 2.35-1.38 2.35-3.34 0-1.9-.36-3.32-2.28-3.32-1.9 0-2.35 1.42-2.35 3.33 0 1.92.44 3.3 2.27 3.35m6.97-7.56l-.08 6.8 3.92-6.8h1.5v8.44h-1.33l.1-6.8-3.95 6.8h-1.5v-8.45h1.36m10.73.92c-1.78 0-2.14 1.47-2.14 3.25s.4 3.33 2.13 3.33c1.06 0 1.82-.62 1.9-1.7l1.43.1c-.27 1.65-1.38 2.7-3.3 2.7-2.6 0-3.37-1.8-3.63-4.4-.45-4.12 4.48-5.8 6.53-2.83.18.3.22.62.3.98l-1.4.13c-.2-.93-.72-1.56-1.83-1.56m7.06 3.65c-.2.04-.63.13-.85.13v3.74h-1.42v-8.45h1.42v3.68c1.15-.1 1.38-.93 1.9-1.82l1.16-1.87h1.48l-2.7 3.8 2.75 4.63h-1.56m6.1-8.62c2.74-.03 3.77 1.66 3.77 4.4.04 2.8-1.2 4.4-3.83 4.4-2.6 0-3.67-1.72-3.72-4.4 0-2.92 1.25-4.4 3.78-4.4zm-.06 7.75c1.97.04 2.37-1.38 2.37-3.34 0-1.9-.36-3.32-2.27-3.32-1.9 0-2.35 1.42-2.35 3.33 0 1.92.44 3.3 2.26 3.35m12.33-1.56c0 2.92-3.7 2.44-6.72 2.44v-8.45c2.72.12 6.32-.68 6.4 2.08.06 1.3-.92 1.55-1.72 1.95 1.2.14 2.05.72 2.05 1.96zm-1.52 0c0-1.83-2.07-1.34-3.76-1.43v2.84c1.7-.03 3.77.37 3.77-1.4zm-.25-3.7c0-1.6-1.96-1.15-3.5-1.24v2.5c1.5-.1 3.5.34 3.5-1.26m6.7-2.5c2.76-.03 3.8 1.66 3.8 4.4.03 2.8-1.2 4.4-3.84 4.4-2.6 0-3.67-1.72-3.72-4.4 0-2.92 1.25-4.4 3.78-4.4zm-.04 7.75c1.97.04 2.37-1.38 2.37-3.34 0-1.9-.36-3.32-2.27-3.32-1.9 0-2.35 1.42-2.35 3.33 0 1.92.44 3.3 2.26 3.35m9.88-7.56v1h-2.84v7.44h-1.43v-8.45h4.28m4.53-.2c2.77-.03 3.8 1.66 3.8 4.4.04 2.8-1.2 4.4-3.83 4.4-2.62 0-3.7-1.72-3.73-4.4 0-2.92 1.24-4.4 3.77-4.4zm-.03 7.75c1.96.04 2.36-1.38 2.36-3.34 0-1.9-.36-3.32-2.27-3.32-1.9 0-2.36 1.42-2.36 3.33 0 1.92.45 3.3 2.27 3.35m16.76-1.56c0 2.92-3.7 2.44-6.72 2.44v-8.45c2.72.12 6.32-.68 6.4 2.08.06 1.3-.92 1.55-1.72 1.95 1.2.14 2.05.72 2.05 1.96zm-1.52 0c0-1.83-2.07-1.34-3.76-1.43v2.84c1.7-.03 3.77.37 3.77-1.4zm-.25-3.7c0-1.6-1.96-1.15-3.5-1.24v2.5c1.5-.1 3.5.34 3.5-1.26m6.7-2.5c2.8 0 3.83 1.88 3.74 4.72h-6c0 1.78.6 2.98 2.35 3.03 1.15.04 1.9-.54 2.17-1.3l1.25.36c-.5 1.26-1.64 2-3.42 2-2.58 0-3.9-1.63-3.87-4.43.05-2.7 1.16-4.36 3.78-4.36zm2.32 3.6c.27-2.65-3.38-3.4-4.3-1.23-.14.3-.28.75-.28 1.24h4.57m6.62 4.15c1.8.04 2.35-1.2 2.35-3.03 0-1.77-.4-3.06-2.22-3.06-1.83 0-2.4 1.2-2.4 3.06 0 1.78.53 3.03 2.26 3.03zm-2.6-5.07c.46-1.25 1.4-2.1 3.04-2.1 2.48 0 3.37 1.48 3.37 4.1.06 2.67-1.23 4-3.8 4.13-5.08.24-4.63-9.1-1.47-10.74 1.28-.67 3.24-.94 4.88-1.16v1.25c-2.96.53-6.4.44-6 4.53m7.8 2.3v-1.23h3.9v1.24h-3.9m8.84-3.88c-1.78 0-2.14 1.47-2.14 3.25s.4 3.33 2.14 3.33c1.06 0 1.82-.62 1.9-1.7l1.43.1c-.27 1.65-1.38 2.7-3.3 2.7-2.6 0-3.37-1.8-3.63-4.4-.45-4.12 4.48-5.8 6.53-2.83.18.3.22.62.3.98l-1.4.13c-.2-.93-.72-1.56-1.83-1.56m8.17-1.1c2.8 0 3.84 1.86 3.75 4.7h-6c0 1.78.62 2.98 2.35 3.03 1.16.04 1.9-.54 2.18-1.3l1.24.36c-.48 1.26-1.64 2-3.42 2-2.58 0-3.9-1.63-3.86-4.43.04-2.7 1.15-4.36 3.77-4.36zm2.33 3.6c.26-2.67-3.38-3.43-4.32-1.25-.12.3-.25.75-.25 1.24h4.58m7.24-3.6c2.44.06 3.1 1.83 3.1 4.37 0 2.53-.7 4.35-3.1 4.44-1.38 0-2.18-.57-2.67-1.5l.05 4.67h-1.43l-.04-11.78h1.38l.1 1.32c.43-.93 1.23-1.5 2.6-1.5zm-.36 7.75c1.8 0 2-1.52 2-3.34 0-1.8-.25-3.23-2-3.28-1.85 0-2.25 1.43-2.25 3.38 0 1.9.44 3.25 2.26 3.25m11.97-1.56c0 2.92-3.7 2.44-6.7 2.44v-8.45c2.7.12 6.3-.68 6.4 2.08.03 1.3-.94 1.55-1.74 1.95 1.2.14 2.04.72 2.04 1.96zm-1.5 0c0-1.83-2.1-1.34-3.8-1.43v2.84c1.7-.03 3.8.37 3.8-1.4zm-.28-3.7c0-1.6-1.96-1.15-3.52-1.24v2.5c1.5-.1 3.5.34 3.5-1.26m4.95-2.3l-.1 6.8 3.92-6.8h1.5v8.44h-1.32l.08-6.8-3.94 6.8h-1.5v-8.45h1.37m10.7.92c-1.77 0-2.13 1.47-2.13 3.25s.4 3.33 2.14 3.33c1.06 0 1.82-.62 1.9-1.7l1.43.1c-.27 1.65-1.38 2.7-3.3 2.7-2.6 0-3.37-1.8-3.63-4.4-.45-4.12 4.48-5.8 6.53-2.83.18.3.22.62.3.98l-1.4.13c-.2-.93-.72-1.56-1.83-1.56m10 5.9c-.67.95-1.38 1.84-3.03 1.8-1.6-.05-2.56-.94-2.56-2.54-.05-2.85 2.8-2.8 5.55-2.8.13-1.56-.4-2.4-1.83-2.4-1.07.04-1.82.3-1.87 1.38l-1.46-.14c.22-1.64 1.46-2.3 3.37-2.3 2 0 3.2.88 3.2 2.84v3.64c-.03.9.33 1.42 1.26 1.2v.9c-1.38.4-2.7-.1-2.62-1.56zm-4.14-.74c0 .9.54 1.47 1.43 1.47 1.82-.14 2.8-1.3 2.66-3.3-1.92.1-4.1-.22-4.1 1.83" fill="#282c33"/><path d="M2237.65-528a6 6 0 0 1 6-6h100.84a6 6 0 0 1 6 6v61.28a6 6 0 0 1-6 6h-100.85a6 6 0 0 1-6-6z" stroke="#008a0e" stroke-width="3" fill="#fff"/><use xlink:href="#i" transform="matrix(1,0,0,1,2241.317999932349,-530.3454553185304) translate(19.987654320987644 26.59722222222222)"/><use xlink:href="#j" transform="matrix(1,0,0,1,2241.317999932349,-530.3454553185304) translate(22.481481481481477 47.93055555555556)"/><path d="M1902.92-630.12c0 5.5-27.63 10-61.7 10-34.1 0-61.7-4.5-61.7-10v-79.92c0-5.52 27.6-10 61.7-10 34.07 0 61.7 4.48 61.7 10z" stroke="#1071e5" stroke-width="3" fill="#fff"/><path d="M1902.92-710.04c0 5.52-27.63 10-61.7 10-34.1 0-61.7-4.48-61.7-10" stroke="#1071e5" stroke-width="3" fill="none"/><use xlink:href="#k" transform="matrix(1,0,0,1,1784.5055419533307,-695.0517402645158) translate(5.740740740740733 38.28472222222222)"/><path d="M2521.25-670.8a6 6 0 0 1 6-6h91.43a6 6 0 0 1 6 6v61.42a6 6 0 0 1-6 6h-91.43a6 6 0 0 1-6-6z" stroke="#e81313" stroke-width="3" fill="#fff"/><use xlink:href="#l" transform="matrix(1,0,0,1,2524.9223824111195,-673.1155567765353) translate(10.52469135802469 26.78472222222222)"/><use xlink:href="#m" transform="matrix(1,0,0,1,2524.9223824111195,-673.1155567765353) translate(25.364197530864196 48.11805555555556)"/><path d="M2521.25-227.8c0 5.3-31.02 9.58-69.28 9.58-38.26 0-69.28-4.3-69.28-9.6v-76.7c0-5.3 31-9.6 69.27-9.6 38.26 0 69.28 4.3 69.28 9.6z" stroke="#eae15f" stroke-width="3" fill="#fff"/><path d="M2521.25-304.53c0 5.3-31.02 9.6-69.28 9.6-38.26 0-69.28-4.3-69.28-9.6" stroke="#eae15f" stroke-width="3" fill="none"/><use xlink:href="#n" transform="matrix(1,0,0,1,2387.6877797874567,-289.93838604830046) translate(7.26543209876543 37.25347222222222)"/><path d="M1946.07-390a6 6 0 0 1 6-6h117.33a6 6 0 0 1 6 6v52a6 6 0 0 1-6 6h-117.33a6 6 0 0 1-6-6z" stroke="#680094" stroke-width="3" fill="#fff"/><use xlink:href="#o" transform="matrix(1,0,0,1,1949.2696065588407,-392.79999999996124) translate(9.722222222222214 32.34722222222222)"/><path d="M2077.9-367.6l56.86-.82 24.36-1.5 17.42-1.8 13.56-2 11.03-2.1 9.2-2.15 7.82-2.18 6.75-2.2 5.9-2.18 5.2-2.18 4.62-2.2 4.14-2.15 3.74-2.16 3.4-2.16 3.08-2.14 2.82-2.15 2.6-2.15 2.4-2.16 2.22-2.17 2.06-2.2 1.92-2.2 1.78-2.26 1.66-2.28 1.55-2.33 1.43-2.4 1.35-2.44 1.25-2.52 1.16-2.6 1.05-2.7.98-2.8.88-2.9.8-3.08.42-2" stroke="#680094" stroke-width="2" stroke-linejoin="round" fill="none"/><path d="M2077.95-366.6l-1.05.03v-2l1.02-.02z" stroke="#680094" stroke-width=".05" fill="#680094"/><path d="M2284.8-456l3.23 14.65-9.23-.9z" stroke="#680094" stroke-width="2" fill="#680094"/><path d="M2235.15-497.6l-31.88.6-23.38 1.46-18.26 1.9-14.82 2.18-12.32 2.35-10.42 2.43-8.94 2.5-7.75 2.5-6.8 2.52-6 2.52-5.33 2.5-4.77 2.5-4.3 2.48-3.88 2.46-3.54 2.47-3.23 2.45-2.95 2.44-2.72 2.45-2.5 2.47-2.33 2.47-2.14 2.48-1.98 2.5-1.85 2.55-1.7 2.58-1.6 2.63-1.48 2.68-1.38 2.75-1.25 2.84-1.15 2.9-1.05 3.02-.94 3.12-.84 3.25-.6 2.78" stroke="#008a0e" stroke-width="2" stroke-linejoin="round" fill="none"/><path d="M2236.15-496.63l-1 .02-.04-2 1.05-.03z" stroke="#008a0e" stroke-width=".05" fill="#008a0e"/><path d="M2039.66-400.72l-3.27-14.64 9.22.87z" stroke="#008a0e" stroke-width="2" fill="#008a0e"/><path d="M2518.75-640.06l-51.74.88-27.44 1.7-19.96 2.07-15.67 2.3-12.78 2.42-10.7 2.5-9.1 2.54-7.85 2.54-6.86 2.55-6.05 2.54-5.38 2.52-4.82 2.5-4.33 2.52-3.93 2.5-3.58 2.47-3.27 2.5-3 2.48-2.78 2.5-2.55 2.5-2.37 2.5-2.2 2.56-2.05 2.58-1.9 2.62-1.77 2.66-1.65 2.72-1.53 2.8-1.42 2.86-1.32 2.95-1.2 3.05-1.1 3.17-1 3.3-.9 3.45-.76 3.62-.13.76" stroke="#e81313" stroke-width="2" stroke-linejoin="round" fill="none"/><path d="M2519.75-639.08l-1 .02-.04-2 1.05-.02z" stroke="#e81313" stroke-width=".05" fill="#e81313"/><path d="M2294.35-538.73l-3.38-14.62 9.24.8z" stroke="#e81313" stroke-width="2" fill="#e81313"/><path d="M2353-497.38l47.02-.84 27.02-1.66 19.88-2.07 15.7-2.3 12.82-2.45 10.75-2.5 9.14-2.56 7.9-2.57 6.93-2.57 6.1-2.56 5.4-2.54 4.85-2.53 4.36-2.52 3.95-2.5 3.6-2.5 3.3-2.5 3-2.5 2.8-2.5 2.55-2.5 2.38-2.54 2.2-2.55 2.05-2.58 1.92-2.62 1.77-2.67 1.64-2.73 1.53-2.78 1.42-2.86 1.3-2.94 1.2-3.05 1.1-3.15 1-3.28.9-3.44.75-3.6.1-.6" stroke="#008a0e" stroke-width="2" stroke-linejoin="round" fill="none"/><path d="M2353.03-496.38l-1.04.02v-2l1-.02z" stroke="#008a0e" stroke-width=".05" fill="#008a0e"/><path d="M2572.7-598.65l3.35 14.62-9.23-.82z" stroke="#008a0e" stroke-width="2" fill="#008a0e"/><path d="M2408.47-560.7a6 6 0 0 1 6-6h153.93a6 6 0 0 1 6 6v40.68a6 6 0 0 1-6 6h-153.93a6 6 0 0 1-6-6z" fill="none"/><use xlink:href="#p" transform="matrix(1,0,0,1,2413.466501931054,-561.6986677649662) translate(0 25.055555555555557)"/><use xlink:href="#q" transform="matrix(1,0,0,1,2413.466501931054,-561.6986677649662) translate(58.17283950617285 25.055555555555557)"/><path d="M2292.2-667.58a6 6 0 0 1 6-6h121.4a6 6 0 0 1 6 6v19.34a6 6 0 0 1-6 6h-121.4a6 6 0 0 1-6-6z" fill="none"/><use xlink:href="#r" transform="matrix(1,0,0,1,2297.197242671795,-668.5834154776037) translate(0 14.555555555555555)"/><use xlink:href="#s" transform="matrix(1,0,0,1,2297.197242671795,-668.5834154776037) translate(55.30864197530865 14.555555555555555)"/><path d="M2113.86-610.76c9.2 0 16.66 7.46 16.66 16.66s-7.46 16.66-16.66 16.66H1997.5c-9.2 0-16.67-7.46-16.67-16.66s7.46-16.66 16.66-16.66z" stroke="#1071e5" stroke-width="3" fill="#fff"/><use xlink:href="#t" transform="matrix(1,0,0,1,1982.5002302495263,-609.0936825150452) translate(46.41240740740741 17.97222222222222)"/><path d="M2137.76-426.57a6 6 0 0 1 6-6h109.46a6 6 0 0 1 6 6v40.68a6 6 0 0 1-6 6h-109.46a6 6 0 0 1-6-6z" fill="none"/><use xlink:href="#p" transform="matrix(1,0,0,1,2142.7552473123383,-427.56719562524245) translate(0 14.388888888888888)"/><use xlink:href="#u" transform="matrix(1,0,0,1,2142.7552473123383,-427.56719562524245) translate(58.17283950617285 14.388888888888888)"/><use xlink:href="#v" transform="matrix(1,0,0,1,2142.7552473123383,-427.56719562524245) translate(0 35.72222222222222)"/><path d="M2081.68-545.48a6 6 0 0 1 6-6h80a6 6 0 0 1 6 6v40.68a6 6 0 0 1-6 6h-80a6 6 0 0 1-6-6z" fill="none"/><use xlink:href="#w" transform="matrix(1,0,0,1,2086.6835189172766,-546.4771552468128) translate(0 14.388888888888888)"/><use xlink:href="#x" transform="matrix(1,0,0,1,2086.6835189172766,-546.4771552468128) translate(53.283950617283956 14.388888888888888)"/><use xlink:href="#y" transform="matrix(1,0,0,1,2086.6835189172766,-546.4771552468128) translate(0 35.72222222222222)"/><path d="M2120.76-301.67a6 6 0 0 1 6-6h154a6 6 0 0 1 6 6v19.34a6 6 0 0 1-6 6h-154a6 6 0 0 1-6-6z" fill="none"/><use xlink:href="#z" transform="matrix(1,0,0,1,2125.7552473123383,-302.67166666662786) translate(0 14.555555555555555)"/><use xlink:href="#A" transform="matrix(1,0,0,1,2125.7552473123383,-302.67166666662786) translate(61.1851851851852 14.555555555555555)"/><use xlink:href="#B" transform="matrix(1,0,0,1,2125.7552473123383,-302.67166666662786) translate(103.65432098765433 14.555555555555555)"/><use xlink:href="#C" transform="matrix(1,0,0,1,2125.7552473123383,-302.67166666662786) translate(127.35802469135804 14.555555555555555)"/><path d="M2115.04-223.46a6 6 0 0 1 6-6h132.18a6 6 0 0 1 6 6v19.34a6 6 0 0 1-6 6h-132.18a6 6 0 0 1-6-6z" fill="none"/><use xlink:href="#p" transform="matrix(1,0,0,1,2120.039197929622,-224.46119896940243) translate(0 14.555555555555555)"/><use xlink:href="#D" transform="matrix(1,0,0,1,2120.039197929622,-224.46119896940243) translate(58.17283950617285 14.555555555555555)"/><use xlink:href="#E" transform="matrix(1,0,0,1,2120.039197929622,-224.46119896940243) translate(76.8888888888889 14.555555555555555)"/><use xlink:href="#F" transform="matrix(1,0,0,1,2120.039197929622,-224.46119896940243) translate(96.64197530864199 14.555555555555555)"/><path d="M1873.6-503.37a6 6 0 0 1 6-6h86.84a6 6 0 0 1 6 6v40.68a6 6 0 0 1-6 6h-86.85a6 6 0 0 1-6-6z" fill="none"/><use xlink:href="#G" transform="matrix(1,0,0,1,1878.5871815089072,-504.3645531856564) translate(0 14.388888888888888)"/><use xlink:href="#H" transform="matrix(1,0,0,1,1878.5871815089072,-504.3645531856564) translate(54.27160493827161 14.388888888888888)"/><use xlink:href="#I" transform="matrix(1,0,0,1,1878.5871815089072,-504.3645531856564) translate(0 35.72222222222222)"/><use xlink:href="#J" transform="matrix(1,0,0,1,1878.5871815089072,-504.3645531856564) translate(23.703703703703706 35.72222222222222)"/><path d="M2033.24-329.5v57.33a6 6 0 0 0 6 6h323.45" stroke="#680094" stroke-width="2" fill="none"/><path d="M2034.24-329.47h-2v-1.03h2z" stroke="#680094" stroke-width=".05" fill="#680094"/><path d="M2377.95-266.17l-14.26 4.64v-9.27z" stroke="#680094" stroke-width="2" fill="#680094"/><path d="M2380.2-239.87H1987a6 6 0 0 1-6-6V-312" stroke="#eae15f" stroke-width="2" fill="none"/><path d="M2381.2-238.87h-1.04v-2h1.03z" stroke="#eae15f" stroke-width=".05" fill="#eae15f"/><path d="M1981.02-327.26l4.63 14.26h-9.27z" stroke="#eae15f" stroke-width="2" fill="#eae15f"/><path d="M1816.98-618.56v266.4a6 6 0 0 0 6 6.02h103.1" stroke="#1071e5" stroke-width="2" fill="none"/><path d="M1817.98-619.52v1h-2v-1.08z" stroke="#1071e5" stroke-width=".05" fill="#1071e5"/><path d="M1941.33-346.14l-14.26 4.63v-9.28z" stroke="#1071e5" stroke-width="2" fill="#1071e5"/><path d="M1710.07-476a6 6 0 0 1 6-6h90.75a6 6 0 0 1 6 6v19.33a6 6 0 0 1-6 6h-90.75a6 6 0 0 1-6-6z" fill="none"/><use xlink:href="#p" transform="matrix(1,0,0,1,1715.06960655888,-477.0099999999613) translate(0 14.555555555555555)"/><use xlink:href="#K" transform="matrix(1,0,0,1,1715.06960655888,-477.0099999999613) translate(58.17283950617285 14.555555555555555)"/><path d="M2113.86-762.73c9.2 0 16.66 7.46 16.66 16.66s-7.46 16.67-16.66 16.67H1997.5c-9.2 0-16.67-7.47-16.67-16.67 0-9.2 7.46-16.66 16.66-16.66z" stroke="#1071e5" stroke-width="3" fill="#fff"/><use xlink:href="#L" transform="matrix(1,0,0,1,1982.5002302495263,-761.0617921373814) translate(66.11611111111111 17.97222222222222)"/><path d="M2113.86-712.07c9.2 0 16.66 7.46 16.66 16.66s-7.46 16.65-16.66 16.65H1997.5c-9.2 0-16.67-7.46-16.67-16.66s7.46-16.67 16.66-16.67z" stroke="#1071e5" stroke-width="3" fill="#fff"/><use xlink:href="#M" transform="matrix(1,0,0,1,1982.5002302495266,-710.4057555966026) translate(58.68401234567901 17.97222222222222)"/><path d="M2113.86-661.42c9.2 0 16.66 7.46 16.66 16.66s-7.46 16.67-16.66 16.67H1997.5c-9.2 0-16.67-7.45-16.67-16.65s7.46-16.67 16.66-16.67z" stroke="#1071e5" stroke-width="3" fill="#fff"/><use xlink:href="#N" transform="matrix(1,0,0,1,1982.5002302495266,-659.749719055824) translate(21.177839506172823 17.97222222222222)"/><path d="M1943.57-372.32h-79.46a6 6 0 0 1-6-6v-222.34" stroke="#680094" stroke-width="2" fill="none"/><path d="M1944.57-371.32h-1.03v-2h1.03z" stroke="#680094" stroke-width=".05" fill="#680094"/><path d="M1858.1-615.93l4.64 14.27h-9.27z" stroke="#680094" stroke-width="2" fill="#680094"/><path d="M2686.36-312.47c8.65 0 15.67 7.02 15.67 15.67 0 8.66-7.02 15.67-15.68 15.67h-81.98c-8.66 0-15.67-7-15.67-15.67 0-8.65 7-15.67 15.67-15.67z" stroke="#eae15f" stroke-width="3" fill="#fff"/><use xlink:href="#L" transform="matrix(1,0,0,1,2590.263970928074,-310.90185756037556) translate(48.11611111111111 17.84722222222222)"/><path d="M2686.36-251.2c8.65 0 15.67 7 15.67 15.66 0 8.65-7.02 15.67-15.68 15.67h-81.98c-8.66 0-15.67-7.02-15.67-15.67 0-8.66 7-15.67 15.67-15.67z" stroke="#eae15f" stroke-width="3" fill="#fff"/><use xlink:href="#M" transform="matrix(1,0,0,1,2590.263970928074,-249.64547577291913) translate(40.68401234567901 17.84722222222222)"/><path d="M1905.42-670.08h38.95" stroke="#1071e5" stroke-width="2" fill="none"/><path d="M1905.45-669.08h-1.03v-2h1.03z" stroke="#1071e5" stroke-width=".05" fill="#1071e5"/><path d="M1944.35-670.08h1.02M1945.37-649.7v-90.37a6 6 0 0 1 6-6h26.95M1945.37-649.74v1.03" stroke="#1071e5" stroke-width="2" fill="none"/><path d="M1979.32-746.07l.13 1h-1.15v-2h1.15z" stroke="#1071e5" stroke-width=".05" fill="#1071e5"/><path d="M1945.37-647.7v47.6a6 6 0 0 0 6 6h26.95M1945.37-647.7v-1" stroke="#1071e5" stroke-width="2" fill="none"/><path d="M1979.32-594.1l.13 1h-1.15v-2h1.15z" stroke="#1071e5" stroke-width=".05" fill="#1071e5"/><path d="M1978.32-695.4h-31.95" stroke="#1071e5" stroke-width="2" fill="none"/><path d="M1979.32-695.4l.13 1h-1.15v-2h1.15z" stroke="#1071e5" stroke-width=".05" fill="#1071e5"/><path d="M1946.4-695.4h-1.03M1978.32-644.75h-31.95" stroke="#1071e5" stroke-width="2" fill="none"/><path d="M1979.32-644.75l.13 1h-1.15v-2h1.15z" stroke="#1071e5" stroke-width=".05" fill="#1071e5"/><path d="M1946.4-644.75h-1.03" stroke="#1071e5" stroke-width="2" fill="none"/><path d="M2521.37-268.18h30.03M2521.4-268.18h-1.03M2551.37-268.18h1.03M2587.76-235.08h-29.64a6 6 0 0 1-6-6V-260M2587.74-235.08h1.02M2552.13-259.97V-261M2586.18-296.8h-28.03a6 6 0 0 0-6 6v29.17" stroke="#eae15f" stroke-width="2" fill="none"/><path d="M2587.18-296.8l.14 1h-1.16v-2h1.16z" stroke="#eae15f" stroke-width=".05" fill="#eae15f"/><path d="M2552.15-261.65v1.02" stroke="#eae15f" stroke-width="2" fill="none"/><defs><linearGradient gradientUnits="userSpaceOnUse" id="a" x1="1700.07" y1="-773.36" x2="1694.07" y2="-779.36"><stop offset="0%" stop-color="#6f7681" stop-opacity=".25"/><stop offset="50%" stop-color="#6f7681" stop-opacity="0"/></linearGradient><linearGradient gradientUnits="userSpaceOnUse" id="b" x1="1700.07" y1="-773.36" x2="1700.07" y2="-779.36"><stop offset="0%" stop-color="#6f7681" stop-opacity=".25"/><stop offset="100%" stop-color="#6f7681" stop-opacity="0"/></linearGradient><linearGradient gradientUnits="userSpaceOnUse" id="c" x1="2725.07" y1="-773.36" x2="2731.07" y2="-779.36"><stop offset="0%" stop-color="#6f7681" stop-opacity=".25"/><stop offset="50%" stop-color="#6f7681" stop-opacity="0"/></linearGradient><linearGradient gradientUnits="userSpaceOnUse" id="d" x1="2725.07" y1="-773.36" x2="2731.07" y2="-773.36"><stop offset="0%" stop-color="#6f7681" stop-opacity=".25"/><stop offset="100%" stop-color="#6f7681" stop-opacity="0"/></linearGradient><linearGradient gradientUnits="userSpaceOnUse" id="e" x1="2725.07" y1="-181.68" x2="2731.07" y2="-175.68"><stop offset="0%" stop-color="#6f7681" stop-opacity=".25"/><stop offset="50%" stop-color="#6f7681" stop-opacity="0"/></linearGradient><linearGradient gradientUnits="userSpaceOnUse" id="f" x1="1700.07" y1="-181.68" x2="1700.07" y2="-175.68"><stop offset="0%" stop-color="#6f7681" stop-opacity=".25"/><stop offset="100%" stop-color="#6f7681" stop-opacity="0"/></linearGradient><linearGradient gradientUnits="userSpaceOnUse" id="g" x1="1700.07" y1="-181.68" x2="1694.07" y2="-175.68"><stop offset="0%" stop-color="#6f7681" stop-opacity=".25"/><stop offset="50%" stop-color="#6f7681" stop-opacity="0"/></linearGradient><linearGradient gradientUnits="userSpaceOnUse" id="h" x1="1700.07" y1="-773.36" x2="1694.07" y2="-773.36"><stop offset="0%" stop-color="#6f7681" stop-opacity=".25"/><stop offset="100%" stop-color="#6f7681" stop-opacity="0"/></linearGradient><path fill="#333" d="M76-208v77h127v40H76V0H24v-248h183v40H76" id="O"/><path fill="#333" d="M133-34C117-15 103 5 69 4 32 3 11-16 11-54c-1-60 55-63 116-61 1-26-3-47-28-47-18 1-26 9-28 27l-52-2c7-38 36-58 82-57s74 22 75 68l1 82c-1 14 12 18 25 15v27c-30 8-71 5-69-32zm-48 3c29 0 43-24 42-57-32 0-66-3-65 30 0 17 8 27 23 27" id="P"/><path fill="#333" d="M137-138c1-29-70-34-71-4 15 46 118 7 119 86 1 83-164 76-172 9l43-7c4 19 20 25 44 25 33 8 57-30 24-41C81-84 22-81 20-136c-2-80 154-74 161-7" id="Q"/><path fill="#333" d="M115-3C79 11 28 4 28-45v-112H4v-33h27l15-45h31v45h36v33H77v99c-1 23 16 31 38 25v30" id="R"/><path fill="#333" d="M199 0l-22-63H83L61 0H9l90-248h61L250 0h-51zm-33-102l-36-108c-10 38-24 72-36 108h72" id="S"/><path fill="#333" d="M24-248c93 1 206-16 204 79-1 75-69 88-152 82V0H24v-248zm52 121c47 0 100 7 100-41 0-47-54-39-100-39v80" id="T"/><path fill="#333" d="M24 0v-248h52V0H24" id="U"/><g id="i"><use transform="matrix(0.04938271604938272,0,0,0.04938271604938272,0,0)" xlink:href="#O"/><use transform="matrix(0.04938271604938272,0,0,0.04938271604938272,10.814814814814815,0)" xlink:href="#P"/><use transform="matrix(0.04938271604938272,0,0,0.04938271604938272,20.69135802469136,0)" xlink:href="#Q"/><use transform="matrix(0.04938271604938272,0,0,0.04938271604938272,30.567901234567906,0)" xlink:href="#R"/><use transform="matrix(0.04938271604938272,0,0,0.04938271604938272,36.44444444444445,0)" xlink:href="#S"/><use transform="matrix(0.04938271604938272,0,0,0.04938271604938272,49.23456790123458,0)" xlink:href="#T"/><use transform="matrix(0.04938271604938272,0,0,0.04938271604938272,61.08641975308644,0)" xlink:href="#U"/></g><path fill="#333" d="M87 75C49 33 22-17 22-94c0-76 28-126 65-167h31c-38 41-64 92-64 168S80 34 118 75H87" id="V"/><path fill="#333" d="M135-143c-3-34-86-38-87 0 15 53 115 12 119 90S17 21 10-45l28-5c4 36 97 45 98 0-10-56-113-15-118-90-4-57 82-63 122-42 12 7 21 19 24 35" id="W"/><path fill="#333" d="M100-194c63 0 86 42 84 106H49c0 40 14 67 53 68 26 1 43-12 49-29l28 8c-11 28-37 45-77 45C44 4 14-33 15-96c1-61 26-98 85-98zm52 81c6-60-76-77-97-28-3 7-6 17-6 28h103" id="X"/><path fill="#333" d="M114-163C36-179 61-72 57 0H25l-1-190h30c1 12-1 29 2 39 6-27 23-49 58-41v29" id="Y"/><path fill="#333" d="M108 0H70L1-190h34L89-25l56-165h34" id="Z"/><path fill="#333" d="M33-261c38 41 65 92 65 168S71 34 33 75H2C39 34 66-17 66-93S39-220 2-261h31" id="aa"/><g id="j"><use transform="matrix(0.04938271604938272,0,0,0.04938271604938272,0,0)" xlink:href="#V"/><use transform="matrix(0.04938271604938272,0,0,0.04938271604938272,5.8765432098765435,0)" xlink:href="#W"/><use transform="matrix(0.04938271604938272,0,0,0.04938271604938272,14.765432098765434,0)" xlink:href="#X"/><use transform="matrix(0.04938271604938272,0,0,0.04938271604938272,24.641975308641978,0)" xlink:href="#Y"/><use transform="matrix(0.04938271604938272,0,0,0.04938271604938272,30.518518518518523,0)" xlink:href="#Z"/><use transform="matrix(0.04938271604938272,0,0,0.04938271604938272,39.40740740740741,0)" xlink:href="#X"/><use transform="matrix(0.04938271604938272,0,0,0.04938271604938272,49.283950617283956,0)" xlink:href="#Y"/><use transform="matrix(0.04938271604938272,0,0,0.04938271604938272,55.1604938271605,0)" xlink:href="#aa"/></g><path fill="#333" d="M110-194c64 0 96 36 96 99 0 64-35 99-97 99-61 0-95-36-95-99 0-62 34-99 96-99zm-1 164c35 0 45-28 45-65 0-40-10-65-43-65-34 0-45 26-45 65 0 36 10 65 43 65" id="ab"/><path fill="#333" d="M195-6C206 82 75 100 31 46c-4-6-6-13-8-21l49-6c3 16 16 24 34 25 40 0 42-37 40-79-11 22-30 35-61 35-53 0-70-43-70-97 0-56 18-96 73-97 30 0 46 14 59 34l2-30h47zm-90-29c32 0 41-27 41-63 0-35-9-62-40-62-32 0-39 29-40 63 0 36 9 62 39 62" id="ac"/><path fill="#333" d="M135-150c-39-12-60 13-60 57V0H25l-1-190h47c2 13-1 29 3 40 6-28 27-53 61-41v41" id="ad"/><path fill="#333" d="M185-48c-13 30-37 53-82 52C43 2 14-33 14-96s30-98 90-98c62 0 83 45 84 108H66c0 31 8 55 39 56 18 0 30-7 34-22zm-45-69c5-46-57-63-70-21-2 6-4 13-4 21h74" id="ae"/><path fill="#333" d="M169-182c-1-43-94-46-97-3 18 66 151 10 154 114 3 95-165 93-204 36-6-8-10-19-12-30l50-8c3 46 112 56 116 5-17-69-150-10-154-114-4-87 153-88 188-35 5 8 8 18 10 28" id="af"/><path fill="#333" d="M140-251c80 0 125 45 125 126 0 70-33 111-92 124 6 28 34 38 68 31l-1 36C177 83 129 55 120 2 51-6 15-50 15-125c0-81 44-126 125-126zm-1 214c52 0 73-35 73-88 0-50-21-86-72-86-52 0-73 35-73 86s22 88 72 88" id="ag"/><path fill="#333" d="M24 0v-248h52v208h133V0H24" id="ah"/><g id="k"><use transform="matrix(0.04938271604938272,0,0,0.04938271604938272,0,0)" xlink:href="#T"/><use transform="matrix(0.04938271604938272,0,0,0.04938271604938272,11.851851851851853,0)" xlink:href="#ab"/><use transform="matrix(0.04938271604938272,0,0,0.04938271604938272,22.666666666666668,0)" xlink:href="#Q"/><use transform="matrix(0.04938271604938272,0,0,0.04938271604938272,32.543209876543216,0)" xlink:href="#R"/><use transform="matrix(0.04938271604938272,0,0,0.04938271604938272,38.41975308641976,0)" xlink:href="#ac"/><use transform="matrix(0.04938271604938272,0,0,0.04938271604938272,49.23456790123458,0)" xlink:href="#ad"/><use transform="matrix(0.04938271604938272,0,0,0.04938271604938272,56.14814814814817,0)" xlink:href="#ae"/><use transform="matrix(0.04938271604938272,0,0,0.04938271604938272,66.02469135802471,0)" xlink:href="#af"/><use transform="matrix(0.04938271604938272,0,0,0.04938271604938272,77.87654320987656,0)" xlink:href="#ag"/><use transform="matrix(0.04938271604938272,0,0,0.04938271604938272,91.70370370370372,0)" xlink:href="#ah"/></g><path fill="#333" d="M220-157c-53 9-28 100-34 157h-49v-107c1-27-5-49-29-50C55-147 81-57 75 0H25l-1-190h47c2 12-1 28 3 38 10-53 101-56 108 0 13-22 24-43 59-42 82 1 51 116 57 194h-49v-107c-1-25-5-48-29-50" id="ai"/><path fill="#333" d="M25 0v-261h50V0H25" id="aj"/><path fill="#333" d="M25-224v-37h50v37H25zM25 0v-190h50V0H25" id="ak"/><g id="l"><use transform="matrix(0.04938271604938272,0,0,0.04938271604938272,0,0)" xlink:href="#af"/><use transform="matrix(0.04938271604938272,0,0,0.04938271604938272,11.851851851851853,0)" xlink:href="#R"/><use transform="matrix(0.04938271604938272,0,0,0.04938271604938272,17.728395061728396,0)" xlink:href="#ad"/><use transform="matrix(0.04938271604938272,0,0,0.04938271604938272,24.641975308641975,0)" xlink:href="#ae"/><use transform="matrix(0.04938271604938272,0,0,0.04938271604938272,34.51851851851852,0)" xlink:href="#P"/><use transform="matrix(0.04938271604938272,0,0,0.04938271604938272,44.39506172839506,0)" xlink:href="#ai"/><use transform="matrix(0.04938271604938272,0,0,0.04938271604938272,60.19753086419754,0)" xlink:href="#aj"/><use transform="matrix(0.04938271604938272,0,0,0.04938271604938272,65.1358024691358,0)" xlink:href="#ak"/><use transform="matrix(0.04938271604938272,0,0,0.04938271604938272,70.07407407407408,0)" xlink:href="#R"/></g><path fill="#333" d="M84 4C-5 8 30-112 23-190h32v120c0 31 7 50 39 49 72-2 45-101 50-169h31l1 190h-30c-1-10 1-25-2-33-11 22-28 36-60 37" id="al"/><g id="m"><use transform="matrix(0.04938271604938272,0,0,0.04938271604938272,0,0)" xlink:href="#V"/><use transform="matrix(0.04938271604938272,0,0,0.04938271604938272,5.8765432098765435,0)" xlink:href="#al"/><use transform="matrix(0.04938271604938272,0,0,0.04938271604938272,15.753086419753087,0)" xlink:href="#W"/><use transform="matrix(0.04938271604938272,0,0,0.04938271604938272,24.641975308641978,0)" xlink:href="#X"/><use transform="matrix(0.04938271604938272,0,0,0.04938271604938272,34.51851851851852,0)" xlink:href="#Y"/><use transform="matrix(0.04938271604938272,0,0,0.04938271604938272,40.39506172839506,0)" xlink:href="#aa"/></g><path fill="#333" d="M24 0v-248h195v40H76v63h132v40H76v65h150V0H24" id="am"/><path fill="#333" d="M190-63c-7 42-38 67-86 67-59 0-84-38-90-98-12-110 154-137 174-36l-49 2c-2-19-15-32-35-32-30 0-35 28-38 64-6 74 65 87 74 30" id="an"/><path fill="#333" d="M114-157C55-157 80-60 75 0H25v-261h50l-1 109c12-26 28-41 61-42 86-1 58 113 63 194h-50c-7-57 23-157-34-157" id="ao"/><g id="n"><use transform="matrix(0.04938271604938272,0,0,0.04938271604938272,0,0)" xlink:href="#am"/><use transform="matrix(0.04938271604938272,0,0,0.04938271604938272,11.851851851851853,0)" xlink:href="#aj"/><use transform="matrix(0.04938271604938272,0,0,0.04938271604938272,16.790123456790127,0)" xlink:href="#P"/><use transform="matrix(0.04938271604938272,0,0,0.04938271604938272,26.666666666666668,0)" xlink:href="#Q"/><use transform="matrix(0.04938271604938272,0,0,0.04938271604938272,36.543209876543216,0)" xlink:href="#R"/><use transform="matrix(0.04938271604938272,0,0,0.04938271604938272,42.41975308641976,0)" xlink:href="#ak"/><use transform="matrix(0.04938271604938272,0,0,0.04938271604938272,47.35802469135803,0)" xlink:href="#an"/><use transform="matrix(0.04938271604938272,0,0,0.04938271604938272,57.23456790123457,0)" xlink:href="#Q"/><use transform="matrix(0.04938271604938272,0,0,0.04938271604938272,67.11111111111111,0)" xlink:href="#ae"/><use transform="matrix(0.04938271604938272,0,0,0.04938271604938272,76.98765432098766,0)" xlink:href="#P"/><use transform="matrix(0.04938271604938272,0,0,0.04938271604938272,86.8641975308642,0)" xlink:href="#ad"/><use transform="matrix(0.04938271604938272,0,0,0.04938271604938272,93.77777777777779,0)" xlink:href="#an"/><use transform="matrix(0.04938271604938272,0,0,0.04938271604938272,103.65432098765433,0)" xlink:href="#ao"/></g><path fill="#333" d="M185-189c-5-48-123-54-124 2 14 75 158 14 163 119 3 78-121 87-175 55-17-10-28-26-33-46l33-7c5 56 141 63 141-1 0-78-155-14-162-118-5-82 145-84 179-34 5 7 8 16 11 25" id="ap"/><path fill="#333" d="M179-190L93 31C79 59 56 82 12 73V49c39 6 53-20 64-50L1-190h34L92-34l54-156h33" id="aq"/><path fill="#333" d="M117-194c89-4 53 116 60 194h-32v-121c0-31-8-49-39-48C34-167 62-67 57 0H25l-1-190h30c1 10-1 24 2 32 11-22 29-35 61-36" id="ar"/><path fill="#333" d="M96-169c-40 0-48 33-48 73s9 75 48 75c24 0 41-14 43-38l32 2c-6 37-31 61-74 61-59 0-76-41-82-99-10-93 101-131 147-64 4 7 5 14 7 22l-32 3c-4-21-16-35-41-35" id="as"/><path fill="#333" d="M106-169C34-169 62-67 57 0H25v-261h32l-1 103c12-21 28-36 61-36 89 0 53 116 60 194h-32v-121c2-32-8-49-39-48" id="at"/><path fill="#333" d="M100-194c62-1 85 37 85 99 1 63-27 99-86 99S16-35 15-95c0-66 28-99 85-99zM99-20c44 1 53-31 53-75 0-43-8-75-51-75s-53 32-53 75 10 74 51 75" id="au"/><path fill="#333" d="M24-231v-30h32v30H24zM24 0v-190h32V0H24" id="av"/><path fill="#333" d="M9 0v-24l116-142H16v-24h144v24L44-24h123V0H9" id="aw"/><g id="o"><use transform="matrix(0.04938271604938272,0,0,0.04938271604938272,0,0)" xlink:href="#ap"/><use transform="matrix(0.04938271604938272,0,0,0.04938271604938272,11.851851851851853,0)" xlink:href="#aq"/><use transform="matrix(0.04938271604938272,0,0,0.04938271604938272,20.74074074074074,0)" xlink:href="#ar"/><use transform="matrix(0.04938271604938272,0,0,0.04938271604938272,30.617283950617285,0)" xlink:href="#as"/><use transform="matrix(0.04938271604938272,0,0,0.04938271604938272,39.50617283950618,0)" xlink:href="#at"/><use transform="matrix(0.04938271604938272,0,0,0.04938271604938272,49.38271604938272,0)" xlink:href="#Y"/><use transform="matrix(0.04938271604938272,0,0,0.04938271604938272,55.25925925925927,0)" xlink:href="#au"/><use transform="matrix(0.04938271604938272,0,0,0.04938271604938272,65.13580246913581,0)" xlink:href="#ar"/><use transform="matrix(0.04938271604938272,0,0,0.04938271604938272,75.01234567901236,0)" xlink:href="#av"/><use transform="matrix(0.04938271604938272,0,0,0.04938271604938272,78.9135802469136,0)" xlink:href="#aw"/><use transform="matrix(0.04938271604938272,0,0,0.04938271604938272,87.80246913580248,0)" xlink:href="#X"/><use transform="matrix(0.04938271604938272,0,0,0.04938271604938272,97.67901234567903,0)" xlink:href="#Y"/></g><path fill="#333" d="M233-177c-1 41-23 64-60 70L243 0h-38l-65-103H63V0H30v-248c88 3 205-21 203 71zM63-129c60-2 137 13 137-47 0-61-80-42-137-45v92" id="ax"/><path fill="#333" d="M59-47c-2 24 18 29 38 22v24C64 9 27 4 27-40v-127H5v-23h24l9-43h21v43h35v23H59v120" id="ay"/><g id="p"><use transform="matrix(0.04938271604938272,0,0,0.04938271604938272,0,0)" xlink:href="#ax"/><use transform="matrix(0.04938271604938272,0,0,0.04938271604938272,12.790123456790125,0)" xlink:href="#X"/><use transform="matrix(0.04938271604938272,0,0,0.04938271604938272,22.66666666666667,0)" xlink:href="#ay"/><use transform="matrix(0.04938271604938272,0,0,0.04938271604938272,27.604938271604947,0)" xlink:href="#al"/><use transform="matrix(0.04938271604938272,0,0,0.04938271604938272,37.48148148148149,0)" xlink:href="#Y"/><use transform="matrix(0.04938271604938272,0,0,0.04938271604938272,43.35802469135803,0)" xlink:href="#ar"/></g><path fill="#333" d="M24 0v-261h32V0H24" id="az"/><g id="q"><use transform="matrix(0.04938271604938272,0,0,0.04938271604938272,0,0)" xlink:href="#Y"/><use transform="matrix(0.04938271604938272,0,0,0.04938271604938272,5.8765432098765435,0)" xlink:href="#X"/><use transform="matrix(0.04938271604938272,0,0,0.04938271604938272,15.753086419753087,0)" xlink:href="#W"/><use transform="matrix(0.04938271604938272,0,0,0.04938271604938272,24.641975308641978,0)" xlink:href="#al"/><use transform="matrix(0.04938271604938272,0,0,0.04938271604938272,34.51851851851852,0)" xlink:href="#az"/><use transform="matrix(0.04938271604938272,0,0,0.04938271604938272,38.41975308641975,0)" xlink:href="#ay"/><use transform="matrix(0.04938271604938272,0,0,0.04938271604938272,43.358024691358025,0)" xlink:href="#W"/></g><path d="M185-189c-5-48-123-54-124 2 14 75 158 14 163 119 3 78-121 87-175 55-17-10-28-26-33-46l33-7c5 56 141 63 141-1 0-78-155-14-162-118-5-82 145-84 179-34 5 7 8 16 11 25" id="aA"/><path d="M100-194c63 0 86 42 84 106H49c0 40 14 67 53 68 26 1 43-12 49-29l28 8c-11 28-37 45-77 45C44 4 14-33 15-96c1-61 26-98 85-98zm52 81c6-60-76-77-97-28-3 7-6 17-6 28h103" id="aB"/><path d="M117-194c89-4 53 116 60 194h-32v-121c0-31-8-49-39-48C34-167 62-67 57 0H25l-1-190h30c1 10-1 24 2 32 11-22 29-35 61-36" id="aC"/><path d="M85-194c31 0 48 13 60 33l-1-100h32l1 261h-30c-2-10 0-23-3-31C134-8 116 4 85 4 32 4 16-35 15-94c0-66 23-100 70-100zm9 24c-40 0-46 34-46 75 0 40 6 74 45 74 42 0 51-32 51-76 0-42-9-74-50-73" id="aD"/><path d="M135-143c-3-34-86-38-87 0 15 53 115 12 119 90S17 21 10-45l28-5c4 36 97 45 98 0-10-56-113-15-118-90-4-57 82-63 122-42 12 7 21 19 24 35" id="aE"/><g id="r"><use transform="matrix(0.04938271604938272,0,0,0.04938271604938272,0,0)" xlink:href="#aA"/><use transform="matrix(0.04938271604938272,0,0,0.04938271604938272,11.851851851851853,0)" xlink:href="#aB"/><use transform="matrix(0.04938271604938272,0,0,0.04938271604938272,21.7283950617284,0)" xlink:href="#aC"/><use transform="matrix(0.04938271604938272,0,0,0.04938271604938272,31.60493827160494,0)" xlink:href="#aD"/><use transform="matrix(0.04938271604938272,0,0,0.04938271604938272,41.48148148148149,0)" xlink:href="#aE"/></g><path d="M114-163C36-179 61-72 57 0H25l-1-190h30c1 12-1 29 2 39 6-27 23-49 58-41v29" id="aF"/><path d="M145-31C134-9 116 4 85 4 32 4 16-35 15-94c0-59 17-99 70-100 32-1 48 14 60 33 0-11-1-24 2-32h30l-1 268h-32zM93-21c41 0 51-33 51-76s-8-73-50-73c-40 0-46 35-46 75s5 74 45 74" id="aG"/><path d="M84 4C-5 8 30-112 23-190h32v120c0 31 7 50 39 49 72-2 45-101 50-169h31l1 190h-30c-1-10 1-25-2-33-11 22-28 36-60 37" id="aH"/><path d="M59-47c-2 24 18 29 38 22v24C64 9 27 4 27-40v-127H5v-23h24l9-43h21v43h35v23H59v120" id="aI"/><g id="s"><use transform="matrix(0.04938271604938272,0,0,0.04938271604938272,0,0)" xlink:href="#aF"/><use transform="matrix(0.04938271604938272,0,0,0.04938271604938272,5.8765432098765435,0)" xlink:href="#aB"/><use transform="matrix(0.04938271604938272,0,0,0.04938271604938272,15.753086419753087,0)" xlink:href="#aG"/><use transform="matrix(0.04938271604938272,0,0,0.04938271604938272,25.629629629629633,0)" xlink:href="#aH"/><use transform="matrix(0.04938271604938272,0,0,0.04938271604938272,35.50617283950618,0)" xlink:href="#aB"/><use transform="matrix(0.04938271604938272,0,0,0.04938271604938272,45.38271604938272,0)" xlink:href="#aE"/><use transform="matrix(0.04938271604938272,0,0,0.04938271604938272,54.27160493827161,0)" xlink:href="#aI"/><use transform="matrix(0.04938271604938272,0,0,0.04938271604938272,59.20987654320988,0)" xlink:href="#aE"/></g><path fill="#333" d="M115-194c53 0 69 39 70 98 0 66-23 100-70 100C84 3 66-7 56-30L54 0H23l1-261h32v101c10-23 28-34 59-34zm-8 174c40 0 45-34 45-75 0-40-5-75-45-74-42 0-51 32-51 76 0 43 10 73 51 73" id="aJ"/><g id="t"><use transform="matrix(0.04938271604938272,0,0,0.04938271604938272,0,0)" xlink:href="#Y"/><use transform="matrix(0.04938271604938272,0,0,0.04938271604938272,5.8765432098765435,0)" xlink:href="#al"/><use transform="matrix(0.04938271604938272,0,0,0.04938271604938272,15.753086419753087,0)" xlink:href="#aJ"/><use transform="matrix(0.04938271604938272,0,0,0.04938271604938272,25.629629629629633,0)" xlink:href="#Y"/><use transform="matrix(0.04938271604938272,0,0,0.04938271604938272,31.506172839506174,0)" xlink:href="#av"/><use transform="matrix(0.04938271604938272,0,0,0.04938271604938272,35.40740740740741,0)" xlink:href="#as"/><use transform="matrix(0.04938271604938272,0,0,0.04938271604938272,44.296296296296305,0)" xlink:href="#W"/></g><path fill="#333" d="M141-36C126-15 110 5 73 4 37 3 15-17 15-53c-1-64 63-63 125-63 3-35-9-54-41-54-24 1-41 7-42 31l-33-3c5-37 33-52 76-52 45 0 72 20 72 64v82c-1 20 7 32 28 27v20c-31 9-61-2-59-35zM48-53c0 20 12 33 32 33 41-3 63-29 60-74-43 2-92-5-92 41" id="aK"/><g id="u"><use transform="matrix(0.04938271604938272,0,0,0.04938271604938272,0,0)" xlink:href="#W"/><use transform="matrix(0.04938271604938272,0,0,0.04938271604938272,8.88888888888889,0)" xlink:href="#X"/><use transform="matrix(0.04938271604938272,0,0,0.04938271604938272,18.765432098765434,0)" xlink:href="#aK"/><use transform="matrix(0.04938271604938272,0,0,0.04938271604938272,28.641975308641978,0)" xlink:href="#Y"/><use transform="matrix(0.04938271604938272,0,0,0.04938271604938272,34.51851851851852,0)" xlink:href="#as"/><use transform="matrix(0.04938271604938272,0,0,0.04938271604938272,43.407407407407405,0)" xlink:href="#at"/></g><path fill="#333" d="M85-194c31 0 48 13 60 33l-1-100h32l1 261h-30c-2-10 0-23-3-31C134-8 116 4 85 4 32 4 16-35 15-94c0-66 23-100 70-100zm9 24c-40 0-46 34-46 75 0 40 6 74 45 74 42 0 51-32 51-76 0-42-9-74-50-73" id="aL"/><g id="v"><use transform="matrix(0.04938271604938272,0,0,0.04938271604938272,0,0)" xlink:href="#aL"/><use transform="matrix(0.04938271604938272,0,0,0.04938271604938272,9.876543209876544,0)" xlink:href="#aK"/><use transform="matrix(0.04938271604938272,0,0,0.04938271604938272,19.75308641975309,0)" xlink:href="#ay"/><use transform="matrix(0.04938271604938272,0,0,0.04938271604938272,24.69135802469136,0)" xlink:href="#aK"/></g><path fill="#333" d="M140-251c81 0 123 46 123 126C263-53 228-8 163 1c7 30 30 48 69 40v23c-55 16-95-15-103-61C56-3 17-48 17-125c0-80 42-126 123-126zm0 227c63 0 89-41 89-101s-29-99-89-99c-61 0-89 39-89 99S79-25 140-24" id="aM"/><g id="w"><use transform="matrix(0.04938271604938272,0,0,0.04938271604938272,0,0)" xlink:href="#aM"/><use transform="matrix(0.04938271604938272,0,0,0.04938271604938272,13.827160493827162,0)" xlink:href="#al"/><use transform="matrix(0.04938271604938272,0,0,0.04938271604938272,23.703703703703706,0)" xlink:href="#X"/><use transform="matrix(0.04938271604938272,0,0,0.04938271604938272,33.580246913580254,0)" xlink:href="#Y"/><use transform="matrix(0.04938271604938272,0,0,0.04938271604938272,39.4567901234568,0)" xlink:href="#aq"/></g><g id="x"><use transform="matrix(0.04938271604938272,0,0,0.04938271604938272,0,0)" xlink:href="#ay"/><use transform="matrix(0.04938271604938272,0,0,0.04938271604938272,4.938271604938272,0)" xlink:href="#au"/></g><g id="y"><use transform="matrix(0.04938271604938272,0,0,0.04938271604938272,0,0)" xlink:href="#aL"/><use transform="matrix(0.04938271604938272,0,0,0.04938271604938272,9.876543209876544,0)" xlink:href="#aK"/><use transform="matrix(0.04938271604938272,0,0,0.04938271604938272,19.75308641975309,0)" xlink:href="#ay"/><use transform="matrix(0.04938271604938272,0,0,0.04938271604938272,24.69135802469136,0)" xlink:href="#aK"/><use transform="matrix(0.04938271604938272,0,0,0.04938271604938272,34.567901234567906,0)" xlink:href="#aJ"/><use transform="matrix(0.04938271604938272,0,0,0.04938271604938272,44.44444444444445,0)" xlink:href="#aK"/><use transform="matrix(0.04938271604938272,0,0,0.04938271604938272,54.320987654320994,0)" xlink:href="#W"/><use transform="matrix(0.04938271604938272,0,0,0.04938271604938272,63.20987654320988,0)" xlink:href="#X"/><use transform="matrix(0.04938271604938272,0,0,0.04938271604938272,73.08641975308643,0)" xlink:href="#W"/></g><g id="z"><use transform="matrix(0.04938271604938272,0,0,0.04938271604938272,0,0)" xlink:href="#ap"/><use transform="matrix(0.04938271604938272,0,0,0.04938271604938272,11.851851851851853,0)" xlink:href="#X"/><use transform="matrix(0.04938271604938272,0,0,0.04938271604938272,21.7283950617284,0)" xlink:href="#aK"/><use transform="matrix(0.04938271604938272,0,0,0.04938271604938272,31.60493827160494,0)" xlink:href="#Y"/><use transform="matrix(0.04938271604938272,0,0,0.04938271604938272,37.48148148148149,0)" xlink:href="#as"/><use transform="matrix(0.04938271604938272,0,0,0.04938271604938272,46.37037037037038,0)" xlink:href="#at"/></g><g id="A"><use transform="matrix(0.04938271604938272,0,0,0.04938271604938272,0,0)" xlink:href="#aL"/><use transform="matrix(0.04938271604938272,0,0,0.04938271604938272,9.876543209876544,0)" xlink:href="#au"/><use transform="matrix(0.04938271604938272,0,0,0.04938271604938272,19.75308641975309,0)" xlink:href="#as"/><use transform="matrix(0.04938271604938272,0,0,0.04938271604938272,28.641975308641978,0)" xlink:href="#W"/></g><g id="B"><use transform="matrix(0.04938271604938272,0,0,0.04938271604938272,0,0)" xlink:href="#aJ"/><use transform="matrix(0.04938271604938272,0,0,0.04938271604938272,9.876543209876544,0)" xlink:href="#aq"/></g><path fill="#333" d="M141 0L90-78 38 0H4l68-98-65-92h35l48 74 47-74h35l-64 92 68 98h-35" id="aN"/><g id="C"><use transform="matrix(0.04938271604938272,0,0,0.04938271604938272,0,0)" xlink:href="#ay"/><use transform="matrix(0.04938271604938272,0,0,0.04938271604938272,4.938271604938272,0)" xlink:href="#X"/><use transform="matrix(0.04938271604938272,0,0,0.04938271604938272,14.814814814814817,0)" xlink:href="#aN"/><use transform="matrix(0.04938271604938272,0,0,0.04938271604938272,23.703703703703706,0)" xlink:href="#ay"/></g><g id="D"><use transform="matrix(0.04938271604938272,0,0,0.04938271604938272,0,0)" xlink:href="#av"/><use transform="matrix(0.04938271604938272,0,0,0.04938271604938272,3.901234567901235,0)" xlink:href="#aL"/></g><path fill="#333" d="M101-234c-31-9-42 10-38 44h38v23H63V0H32v-167H5v-23h27c-7-52 17-82 69-68v24" id="aO"/><g id="E"><use transform="matrix(0.04938271604938272,0,0,0.04938271604938272,0,0)" xlink:href="#au"/><use transform="matrix(0.04938271604938272,0,0,0.04938271604938272,9.876543209876544,0)" xlink:href="#aO"/></g><g id="F"><use transform="matrix(0.04938271604938272,0,0,0.04938271604938272,0,0)" xlink:href="#aL"/><use transform="matrix(0.04938271604938272,0,0,0.04938271604938272,9.876543209876544,0)" xlink:href="#au"/><use transform="matrix(0.04938271604938272,0,0,0.04938271604938272,19.75308641975309,0)" xlink:href="#as"/><use transform="matrix(0.04938271604938272,0,0,0.04938271604938272,28.641975308641978,0)" xlink:href="#W"/></g><g id="G"><use transform="matrix(0.04938271604938272,0,0,0.04938271604938272,0,0)" xlink:href="#ap"/><use transform="matrix(0.04938271604938272,0,0,0.04938271604938272,11.851851851851853,0)" xlink:href="#X"/><use transform="matrix(0.04938271604938272,0,0,0.04938271604938272,21.7283950617284,0)" xlink:href="#az"/><use transform="matrix(0.04938271604938272,0,0,0.04938271604938272,25.629629629629633,0)" xlink:href="#X"/><use transform="matrix(0.04938271604938272,0,0,0.04938271604938272,35.50617283950618,0)" xlink:href="#as"/><use transform="matrix(0.04938271604938272,0,0,0.04938271604938272,44.39506172839506,0)" xlink:href="#ay"/></g><g id="H"><use transform="matrix(0.04938271604938272,0,0,0.04938271604938272,0,0)" xlink:href="#aL"/><use transform="matrix(0.04938271604938272,0,0,0.04938271604938272,9.876543209876544,0)" xlink:href="#aK"/><use transform="matrix(0.04938271604938272,0,0,0.04938271604938272,19.75308641975309,0)" xlink:href="#ay"/><use transform="matrix(0.04938271604938272,0,0,0.04938271604938272,24.69135802469136,0)" xlink:href="#aK"/></g><g id="I"><use transform="matrix(0.04938271604938272,0,0,0.04938271604938272,0,0)" xlink:href="#aJ"/><use transform="matrix(0.04938271604938272,0,0,0.04938271604938272,9.876543209876544,0)" xlink:href="#aq"/></g><g id="J"><use transform="matrix(0.04938271604938272,0,0,0.04938271604938272,0,0)" xlink:href="#av"/><use transform="matrix(0.04938271604938272,0,0,0.04938271604938272,3.901234567901235,0)" xlink:href="#aL"/></g><g id="K"><use transform="matrix(0.04938271604938272,0,0,0.04938271604938272,0,0)" xlink:href="#aL"/><use transform="matrix(0.04938271604938272,0,0,0.04938271604938272,9.876543209876544,0)" xlink:href="#aK"/><use transform="matrix(0.04938271604938272,0,0,0.04938271604938272,19.75308641975309,0)" xlink:href="#ay"/><use transform="matrix(0.04938271604938272,0,0,0.04938271604938272,24.69135802469136,0)" xlink:href="#aK"/></g><g id="L"><use transform="matrix(0.04938271604938272,0,0,0.04938271604938272,0,0)" xlink:href="#av"/><use transform="matrix(0.04938271604938272,0,0,0.04938271604938272,3.901234567901235,0)" xlink:href="#aL"/></g><g id="M"><use transform="matrix(0.04938271604938272,0,0,0.04938271604938272,0,0)" xlink:href="#ay"/><use transform="matrix(0.04938271604938272,0,0,0.04938271604938272,4.938271604938272,0)" xlink:href="#X"/><use transform="matrix(0.04938271604938272,0,0,0.04938271604938272,14.814814814814817,0)" xlink:href="#aN"/><use transform="matrix(0.04938271604938272,0,0,0.04938271604938272,23.703703703703706,0)" xlink:href="#ay"/></g><path fill="#333" d="M-5 72V49h209v23H-5" id="aP"/><g id="N"><use transform="matrix(0.04938271604938272,0,0,0.04938271604938272,0,0)" xlink:href="#as"/><use transform="matrix(0.04938271604938272,0,0,0.04938271604938272,8.88888888888889,0)" xlink:href="#Y"/><use transform="matrix(0.04938271604938272,0,0,0.04938271604938272,14.765432098765434,0)" xlink:href="#X"/><use transform="matrix(0.04938271604938272,0,0,0.04938271604938272,24.641975308641978,0)" xlink:href="#aK"/><use transform="matrix(0.04938271604938272,0,0,0.04938271604938272,34.51851851851852,0)" xlink:href="#ay"/><use transform="matrix(0.04938271604938272,0,0,0.04938271604938272,39.45679012345679,0)" xlink:href="#X"/><use transform="matrix(0.04938271604938272,0,0,0.04938271604938272,49.333333333333336,0)" xlink:href="#aL"/><use transform="matrix(0.04938271604938272,0,0,0.04938271604938272,59.20987654320988,0)" xlink:href="#aP"/><use transform="matrix(0.04938271604938272,0,0,0.04938271604938272,69.08641975308643,0)" xlink:href="#aL"/><use transform="matrix(0.04938271604938272,0,0,0.04938271604938272,78.96296296296298,0)" xlink:href="#aK"/><use transform="matrix(0.04938271604938272,0,0,0.04938271604938272,88.83950617283952,0)" xlink:href="#ay"/><use transform="matrix(0.04938271604938272,0,0,0.04938271604938272,93.7777777777778,0)" xlink:href="#X"/></g></defs></g></svg>